<svg xmlns="http://www.w3.org/2000/svg" viewBox="0 0 667 657"><defs><style>.cls-1{fill:#718792;}.cls-2{fill:#1c313a;}.cls-3{fill:#ff867c;}.cls-4{fill:#455a64;}.cls-5{fill:#ef5350;}.cls-6{fill:#b61827;}</style></defs><title>Fichier 1</title><g id="Calque_2" data-name="Calque 2"><g id="Calque_1-2" data-name="Calque 1"><path class="cls-1" d="M98.25,214.37a48.87,48.87,0,0,1-48.88,48.88h-.24A48.87,48.87,0,0,1,.25,214.37v-165A48.87,48.87,0,0,0,49.13,98.25H98.25Z" transform="translate(-0.25 -0.25)"/><path class="cls-2" d="M502.25,492.25H453.13a48.87,48.87,0,0,1-48.88-48.88v-.24a48.87,48.87,0,0,1,48.88-48.88h.24a48.87,48.87,0,0,1,48.88,48.88Z" transform="translate(-0.25 -0.25)"/><path class="cls-1" d="M453.13,657.25a48.87,48.87,0,0,1-48.88-48.88v-165a48.87,48.87,0,0,0,48.88,48.88h49.12V608.37a48.87,48.87,0,0,1-48.88,48.88Z" transform="translate(-0.25 -0.25)"/><path class="cls-3" d="M202.25,246.37a48.87,48.87,0,0,0,48.88,48.88h49.12V411.37a48.87,48.87,0,0,1-48.88,48.88h-.24a48.87,48.87,0,0,1-48.88-48.88Z" transform="translate(-0.25 -0.25)"/><path class="cls-4" d="M49.37.25h165a48.87,48.87,0,0,1,48.88,48.88v.24a48.87,48.87,0,0,1-48.88,48.88H98.25V49.13A48.87,48.87,0,0,0,49.37.25Z" transform="translate(-0.25 -0.25)"/><path class="cls-4" d="M667.25,443.37a48.87,48.87,0,0,1-48.88,48.88H502.25V443.13a48.87,48.87,0,0,0-48.88-48.88h165a48.87,48.87,0,0,1,48.88,48.88Z" transform="translate(-0.25 -0.25)"/><path class="cls-2" d="M98.25,49.13V98.25H49.13A48.87,48.87,0,0,1,.25,49.37v-.24A48.87,48.87,0,0,1,49.13.25h.24A48.87,48.87,0,0,1,98.25,49.13Z" transform="translate(-0.25 -0.25)"/><path class="cls-5" d="M300.25,246.13a48.87,48.87,0,0,0-48.88-48.88h165a48.87,48.87,0,0,1,48.88,48.88v.24a48.87,48.87,0,0,1-48.88,48.88H300.25Z" transform="translate(-0.25 -0.25)"/><path class="cls-6" d="M251.13,295.25a48.87,48.87,0,0,1-48.88-48.88v-.24a48.87,48.87,0,0,1,48.88-48.88h.24a48.87,48.87,0,0,1,48.88,48.88v49.12Z" transform="translate(-0.25 -0.25)"/></g></g></svg>